<svg width="17" height="17" viewBox="0 0 17 17" fill="none" xmlns="http://www.w3.org/2000/svg">
<g clip-path="url(#clip0_2724_6616)">
<path d="M15.5796 11.985V14.11C15.5804 14.3073 15.54 14.5026 15.461 14.6833C15.3819 14.8641 15.266 15.0263 15.1207 15.1597C14.9753 15.293 14.8037 15.3946 14.6168 15.4578C14.4299 15.521 14.2319 15.5445 14.0354 15.5267C11.8558 15.2899 9.76206 14.545 7.92252 13.3521C6.21106 12.2646 4.76005 10.8136 3.67252 9.10211C2.47542 7.25421 1.73044 5.15032 1.49794 2.96086C1.48024 2.76498 1.50351 2.56757 1.56629 2.38118C1.62907 2.19479 1.72997 2.02352 1.86256 1.87826C1.99516 1.733 2.15655 1.61695 2.33646 1.53748C2.51636 1.45801 2.71084 1.41688 2.90752 1.41669H5.03252C5.37628 1.41331 5.70954 1.53504 5.97018 1.7592C6.23083 1.98335 6.40107 2.29464 6.44919 2.63503C6.53888 3.31507 6.70521 3.98279 6.94502 4.62544C7.04032 4.87897 7.06095 5.15451 7.00445 5.4194C6.94796 5.68429 6.81671 5.92744 6.62627 6.12003L5.72669 7.01961C6.73504 8.79296 8.20334 10.2613 9.97669 11.2696L10.8763 10.37C11.0689 10.1796 11.312 10.0483 11.5769 9.99184C11.8418 9.93535 12.1173 9.95598 12.3709 10.0513C13.0135 10.2911 13.6812 10.4574 14.3613 10.5471C14.7054 10.5957 15.0196 10.769 15.2442 11.0341C15.4689 11.2992 15.5882 11.6376 15.5796 11.985Z" stroke="#1A1C24" stroke-linecap="round" stroke-linejoin="round"/>
</g>
<defs>
<clipPath id="clip0_2724_6616">
<rect width="17" height="17" fill="white"/>
</clipPath>
</defs>
</svg>
