<svg width="28" height="27" viewBox="0 0 28 27" fill="none" xmlns="http://www.w3.org/2000/svg">
<path d="M7.85355 10.6464C7.65829 10.4512 7.34171 10.4512 7.14645 10.6464C6.95118 10.8417 6.95118 11.1583 7.14645 11.3536L7.5 11L7.85355 10.6464ZM10 13.5L9.64645 13.8536C9.84171 14.0488 10.1583 14.0488 10.3536 13.8536L10 13.5ZM15.8536 8.35355C16.0488 8.15829 16.0488 7.84171 15.8536 7.64645C15.6583 7.45118 15.3417 7.45118 15.1464 7.64645L15.5 8L15.8536 8.35355ZM26.848 24.9425L26.3666 24.8073L26.848 24.9425ZM26.3012 23.3478L26.6424 22.9823L26.3012 23.3478ZM23.889 25.9298L23.5479 26.2953L23.889 25.9298ZM25.329 26.4003L25.2186 25.9126L25.329 26.4003ZM17 19.5L16.6588 19.8655L23.5479 26.2953L23.889 25.9298L24.2302 25.5642L17.3412 19.1345L17 19.5ZM25.329 26.4003L25.4393 26.8879C25.892 26.7855 26.2994 26.6027 26.6321 26.2922C26.9655 25.9812 27.19 25.5736 27.3293 25.0777L26.848 24.9425L26.3666 24.8073C26.265 25.1689 26.1206 25.4018 25.9499 25.5611C25.7786 25.7209 25.5469 25.8383 25.2186 25.9126L25.329 26.4003ZM26.3012 23.3478L26.6424 22.9823L19.8412 16.6345L19.5 17L19.1588 17.3655L25.96 23.7133L26.3012 23.3478ZM7.5 11L7.14645 11.3536L9.64645 13.8536L10 13.5L10.3536 13.1464L7.85355 10.6464L7.5 11ZM10 13.5L10.3536 13.8536L15.8536 8.35355L15.5 8L15.1464 7.64645L9.64645 13.1464L10 13.5ZM26.848 24.9425L27.3293 25.0777C27.5596 24.258 27.1707 23.4754 26.6424 22.9823L26.3012 23.3478L25.96 23.7133C26.3155 24.0451 26.4633 24.4631 26.3666 24.8073L26.848 24.9425ZM23.889 25.9298L23.5479 26.2953C24.0155 26.7318 24.7051 27.0542 25.4393 26.8879L25.329 26.4003L25.2186 25.9126C24.9097 25.9825 24.5444 25.8575 24.2302 25.5642L23.889 25.9298Z" fill="#1A1C24"/>
<circle cx="11" cy="11" r="10.5" stroke="#1A1C24"/>
</svg>
