<svg width="24" height="24" viewBox="0 0 24 24" fill="none" xmlns="http://www.w3.org/2000/svg">
<path d="M13.6068 8.89289C13.2554 9.24436 13.2554 9.81421 13.6068 10.1657C13.9583 10.5172 14.5282 10.5172 14.8796 10.1657L14.2432 9.52929L13.6068 8.89289ZM21.5117 10.7871C21.455 11.2809 21.8094 11.7272 22.3032 11.7838C22.797 11.8405 23.2433 11.4862 23.2999 10.9924L22.4058 10.8897L21.5117 10.7871ZM12.7759 0.473117C12.2823 0.532176 11.9301 0.980142 11.9892 1.47368C12.0482 1.96721 12.4962 2.31942 12.9897 2.26037L12.8828 1.36674L12.7759 0.473117ZM19.685 0.913321L19.7299 0.0144439L19.685 0.913321ZM22.8593 3.63412L23.7582 3.58917V3.58917L22.8593 3.63412ZM14.2432 9.52929L14.8796 10.1657L22.5887 2.45667L21.9523 1.82027L21.3159 1.18387L13.6068 8.89289L14.2432 9.52929ZM12.8828 1.36674C12.9897 2.26037 12.9897 2.26037 12.9897 2.26037C12.9898 2.26036 12.9898 2.26036 12.9898 2.26036C12.9899 2.26034 12.9901 2.26032 12.9903 2.2603C12.9908 2.26024 12.9916 2.26015 12.9926 2.26002C12.9947 2.25978 12.9979 2.2594 13.0021 2.25889C13.0107 2.25788 13.0236 2.25636 13.0406 2.25437C13.0746 2.25039 13.125 2.24452 13.1902 2.23707C13.3205 2.22218 13.5095 2.20095 13.7432 2.17578C14.2108 2.1254 14.8559 2.05938 15.5661 1.9967C17.0066 1.86957 18.6482 1.76261 19.64 1.8122L19.685 0.913321L19.7299 0.0144439C18.5966 -0.042223 16.8371 0.077531 15.4078 0.20367C14.6832 0.267627 14.0262 0.334881 13.5504 0.386129C13.3124 0.411766 13.1195 0.433433 12.9857 0.448725C12.9188 0.456373 12.8667 0.462428 12.8312 0.466593C12.8134 0.468675 12.7997 0.470285 12.7904 0.471385C12.7858 0.471935 12.7822 0.472357 12.7798 0.472647C12.7786 0.472792 12.7777 0.472904 12.777 0.472983C12.7767 0.473022 12.7764 0.473053 12.7762 0.473075C12.7761 0.473086 12.776 0.473097 12.776 0.473102C12.7759 0.473111 12.7759 0.473117 12.8828 1.36674ZM19.685 0.913321L19.64 1.8122C20.1789 1.83914 20.6114 2.0116 20.9108 2.17894C21.0599 2.26234 21.1724 2.34253 21.2437 2.3981C21.2791 2.42574 21.3037 2.44685 21.317 2.45859C21.3237 2.46445 21.3274 2.46792 21.3282 2.46864C21.3285 2.469 21.3282 2.46867 21.3271 2.4676C21.3265 2.46706 21.3258 2.46634 21.3248 2.46543C21.3244 2.46498 21.3238 2.46447 21.3233 2.46392C21.323 2.46365 21.3227 2.46336 21.3224 2.46306C21.3222 2.46291 21.322 2.46267 21.3219 2.4626C21.3217 2.46236 21.3214 2.46212 21.9523 1.82027C22.5832 1.17842 22.583 1.17817 22.5827 1.17792C22.5826 1.17784 22.5824 1.17758 22.5822 1.17741C22.5818 1.17706 22.5815 1.17669 22.5811 1.17632C22.5803 1.17556 22.5795 1.17476 22.5786 1.1739C22.5768 1.17218 22.5748 1.17026 22.5726 1.16814C22.5682 1.16391 22.5629 1.15887 22.5567 1.15309C22.5443 1.14153 22.5284 1.12696 22.509 1.10982C22.4702 1.07556 22.4174 1.03079 22.3509 0.978948C22.2184 0.875532 22.0297 0.742268 21.7891 0.60778C21.3089 0.339354 20.6078 0.058338 19.7299 0.0144439L19.685 0.913321ZM21.9523 1.82027C21.4465 2.56466 21.4461 2.56442 21.4458 2.56419C21.4457 2.56411 21.4453 2.56388 21.4451 2.56373C21.4447 2.56342 21.4442 2.56313 21.4438 2.56284C21.443 2.56226 21.4422 2.56171 21.4414 2.56119C21.4399 2.56016 21.4386 2.55924 21.4375 2.55844C21.4352 2.55685 21.4337 2.55573 21.4328 2.55509C21.431 2.55382 21.4319 2.55443 21.4351 2.55693C21.4416 2.56198 21.457 2.57434 21.4785 2.59404C21.5222 2.63386 21.588 2.70074 21.6569 2.79469C21.7921 2.97902 21.9398 3.26675 21.9604 3.67906L22.8593 3.63412L23.7582 3.58917C23.7168 2.76183 23.411 2.14264 23.1082 1.72996C22.9582 1.5254 22.8089 1.37126 22.6921 1.26467C22.6335 1.21118 22.5824 1.169 22.5424 1.1378C22.5224 1.12218 22.5051 1.10924 22.4909 1.09895C22.4838 1.0938 22.4775 1.08931 22.4721 1.08547C22.4693 1.08355 22.4668 1.08179 22.4645 1.08019C22.4633 1.07939 22.4622 1.07863 22.4612 1.07792C22.4606 1.07756 22.4601 1.07721 22.4596 1.07687C22.4594 1.0767 22.459 1.07645 22.4589 1.07637C22.4585 1.07612 22.4582 1.07588 21.9523 1.82027ZM22.8593 3.63412L21.9604 3.67906C22.0146 4.76203 21.907 6.51945 21.7789 8.05017C21.7156 8.80609 21.6487 9.49131 21.5976 9.98762C21.5721 10.2357 21.5505 10.4362 21.5354 10.5744C21.5278 10.6435 21.5218 10.697 21.5178 10.7331C21.5158 10.7511 21.5142 10.7648 21.5132 10.7739C21.5127 10.7784 21.5123 10.7818 21.512 10.784C21.5119 10.7851 21.5118 10.7859 21.5118 10.7864C21.5117 10.7867 21.5117 10.7869 21.5117 10.787C21.5117 10.787 21.5117 10.7871 21.5117 10.7871C21.5117 10.7871 21.5117 10.7871 22.4058 10.8897C23.2999 10.9924 23.2999 10.9923 23.3 10.9922C23.3 10.9922 23.3 10.9921 23.3 10.992C23.3 10.9918 23.3 10.9915 23.3001 10.9912C23.3002 10.9905 23.3003 10.9895 23.3004 10.9882C23.3007 10.9856 23.3011 10.9819 23.3017 10.977C23.3028 10.9672 23.3044 10.9528 23.3065 10.9339C23.3108 10.8963 23.3169 10.8412 23.3247 10.7703C23.3402 10.6287 23.3621 10.4243 23.3881 10.1719C23.44 9.66755 23.5081 8.97053 23.5726 8.20033C23.7 6.67879 23.8191 4.80841 23.7582 3.58917L22.8593 3.63412Z" fill="white"/>
<path d="M10.1865 14.904C10.5394 14.554 10.5417 13.9841 10.1917 13.6312C9.84164 13.2783 9.2718 13.276 8.9189 13.6261L9.55269 14.265L10.1865 14.904ZM2.28944 12.9776C2.34813 12.484 1.99559 12.0363 1.50201 11.9776C1.00843 11.919 0.560726 12.2715 0.50203 12.7651L1.39573 12.8713L2.28944 12.9776ZM10.9831 23.3271C11.4769 23.2701 11.8309 22.8236 11.7739 22.3298C11.7168 21.836 11.2703 21.482 10.7765 21.539L10.8798 22.4331L10.9831 23.3271ZM4.0759 22.8588L4.02729 23.7575L4.0759 22.8588ZM0.912684 20.1251L0.0136313 20.1663L0.912684 20.1251ZM9.55269 14.265L8.9189 13.6261L1.17844 21.3036L1.81223 21.9426L2.44603 22.5816L10.1865 14.904L9.55269 14.265ZM10.8798 22.4331C10.7765 21.539 10.7766 21.539 10.7766 21.539C10.7765 21.539 10.7765 21.539 10.7765 21.539C10.7764 21.5391 10.7762 21.5391 10.776 21.5391C10.7755 21.5392 10.7747 21.5392 10.7737 21.5394C10.7716 21.5396 10.7684 21.54 10.7641 21.5405C10.7556 21.5414 10.7427 21.5429 10.7257 21.5448C10.6917 21.5487 10.6412 21.5543 10.576 21.5615C10.4457 21.5759 10.2565 21.5963 10.0228 21.6206C9.55495 21.669 8.90962 21.7324 8.19915 21.7922C6.7581 21.9135 5.11608 22.0137 4.12451 21.9601L4.0759 22.8588L4.02729 23.7575C5.16039 23.8188 6.92033 23.7062 8.35008 23.5859C9.07502 23.5249 9.73229 23.4603 10.2082 23.411C10.4463 23.3863 10.6394 23.3654 10.7732 23.3507C10.8401 23.3433 10.8923 23.3375 10.9278 23.3334C10.9456 23.3314 10.9593 23.3299 10.9685 23.3288C10.9732 23.3283 10.9767 23.3279 10.9792 23.3276C10.9804 23.3275 10.9813 23.3273 10.982 23.3273C10.9823 23.3272 10.9826 23.3272 10.9828 23.3272C10.9829 23.3272 10.983 23.3272 10.983 23.3272C10.9831 23.3271 10.9831 23.3271 10.8798 22.4331ZM4.0759 22.8588L4.12451 21.9601C3.58576 21.931 3.15392 21.7567 2.85526 21.5882C2.70642 21.5042 2.59426 21.4235 2.52326 21.3677C2.48794 21.3399 2.46337 21.3187 2.45014 21.3069C2.44354 21.301 2.43981 21.2975 2.43904 21.2968C2.43866 21.2964 2.43902 21.2967 2.44013 21.2978C2.44069 21.2984 2.44143 21.2991 2.44237 21.3C2.44283 21.3005 2.44335 21.301 2.44391 21.3015C2.44419 21.3018 2.44448 21.3021 2.44479 21.3024C2.44494 21.3025 2.44518 21.3028 2.44526 21.3028C2.4455 21.3031 2.44574 21.3033 1.81223 21.9426C1.17873 22.5819 1.17898 22.5821 1.17923 22.5824C1.17932 22.5825 1.17958 22.5827 1.17976 22.5829C1.18011 22.5832 1.18048 22.5836 1.18087 22.584C1.18164 22.5847 1.18246 22.5855 1.18334 22.5864C1.1851 22.5881 1.18708 22.5901 1.18928 22.5922C1.19369 22.5964 1.19898 22.6015 1.20515 22.6073C1.21748 22.6189 1.23334 22.6335 1.25267 22.6508C1.2913 22.6852 1.34399 22.7302 1.41023 22.7823C1.54235 22.8862 1.73051 23.0203 1.97054 23.1557C2.4496 23.4261 3.14959 23.71 4.02729 23.7575L4.0759 22.8588ZM1.81223 21.9426C2.32111 21.2003 2.32146 21.2005 2.32181 21.2007C2.32192 21.2008 2.32226 21.2011 2.32248 21.2012C2.32293 21.2015 2.32336 21.2018 2.32378 21.2021C2.32462 21.2027 2.32542 21.2032 2.32617 21.2038C2.32766 21.2048 2.32897 21.2057 2.3301 21.2065C2.33237 21.2081 2.33391 21.2093 2.33479 21.2099C2.33654 21.2112 2.33564 21.2106 2.33244 21.208C2.326 21.203 2.31069 21.1905 2.28918 21.1708C2.24573 21.1308 2.18017 21.0636 2.11164 20.9694C1.97716 20.7845 1.83067 20.4962 1.81174 20.0838L0.912684 20.1251L0.0136313 20.1663C0.051625 20.9938 0.354915 21.6143 0.655979 22.0282C0.805213 22.2334 0.953868 22.3881 1.07019 22.4952C1.12857 22.5489 1.17953 22.5913 1.21939 22.6227C1.23935 22.6384 1.25661 22.6514 1.27073 22.6617C1.27779 22.6669 1.28407 22.6714 1.28953 22.6753C1.29225 22.6772 1.29477 22.679 1.29708 22.6806C1.29824 22.6814 1.29934 22.6821 1.30038 22.6829C1.3009 22.6832 1.30141 22.6836 1.30191 22.6839C1.30216 22.6841 1.30252 22.6843 1.30264 22.6844C1.303 22.6847 1.30336 22.6849 1.81223 21.9426ZM0.912684 20.1251L1.81174 20.0838C1.762 19.0006 1.87673 17.2436 2.01111 15.7134C2.07747 14.9578 2.14716 14.2728 2.20027 13.7767C2.22682 13.5288 2.24919 13.3284 2.26489 13.1902C2.27274 13.1211 2.27891 13.0676 2.28311 13.0316C2.28521 13.0136 2.28681 12.9999 2.28788 12.9908C2.28841 12.9863 2.28881 12.9829 2.28907 12.9807C2.2892 12.9796 2.2893 12.9788 2.28936 12.9783C2.28939 12.978 2.28941 12.9778 2.28942 12.9777C2.28943 12.9777 2.28943 12.9776 2.28944 12.9776C2.28944 12.9776 2.28944 12.9776 1.39573 12.8713C0.50203 12.7651 0.502024 12.7651 0.502015 12.7652C0.502009 12.7652 0.501999 12.7653 0.501988 12.7654C0.501964 12.7656 0.501932 12.7659 0.501891 12.7662C0.50181 12.7669 0.501692 12.7679 0.50154 12.7692C0.501236 12.7718 0.500794 12.7755 0.500217 12.7804C0.499062 12.7902 0.497371 12.8047 0.495182 12.8235C0.490806 12.8611 0.484439 12.9162 0.476394 12.987C0.460307 13.1286 0.437506 13.3329 0.410503 13.5851C0.356525 14.0893 0.285628 14.786 0.218012 15.556C0.0844367 17.077 -0.0423607 18.9469 0.0136313 20.1663L0.912684 20.1251Z" fill="white"/>
</svg>
